/* XPM */
static char * offbulb_xpm[] = {
"16 18 18 1",
" 	c #000000",
".	c #101010",
"+	c #181818",
"@	c #212121",
"#	c #292929",
"$	c #313131",
"%	c #393939",
"&	c #424242",
"*	c #4A4A4A",
"=	c #525252",
"-	c #5A5A5A",
";	c #6B6B6B",
">	c #848484",
",	c #9C9C9C",
"'	c #A5A5A5",
")	c #C6C6C6",
"!	c #D6D6D6",
"~	c #FFFFFF",
"~~~~~~~~~~~~~~~~",
"~~~~~~~~~~~~~~~~",
"~~~~~~!%=!~~~~~~",
"~~~~~@#>>#-~~~~~",
"~~~~#=))))%=~~~~",
"~~~!+~~))))@!~~~",
"~~~*>~~))))>*~~~",
"~~~*)~~)))))*~~~",
"~~~!#))))))+!~~~",
"~~~~#))))));~~~~",
"~~~~~ ))))+~~~~~",
"~~~~~@'))' ~~~~~",
"~~~~~*,)),.~~~~~",
"~~~~~*.....~~~~~",
"~~~~~=%,'%+~~~~~",
"~~~~~&*',*.~~~~~",
"~~~~~~.=>+~~~~~~",
"~~~~~~~~~~~~~~~~"};
