/* XPM */
static char * onbulb_xpm[] = {
"16 18 59 1",
" 	c #FFFFFF",
".	c #FFFEF5",
"+	c #FEFBC7",
"@	c #D5CF7D",
"#	c #393721",
"$	c #525140",
"%	c #D6D5CD",
"&	c #20200B",
"*	c #282603",
"=	c #827B0B",
"-	c #827D20",
";	c #29281E",
">	c #5A5A5A",
",	c #292816",
"'	c #514C05",
")	c #C3B80A",
"!	c #C3B80B",
"~	c #C3B80D",
"{	c #38360C",
"]	c #524F2D",
"^	c #FFFEEB",
"/	c #D6D6D6",
"(	c #181709",
"_	c #FBED0D",
":	c #201F03",
"<	c #D4CE6F",
"[	c #4A4A4A",
"}	c #837E37",
"|	c #827B07",
"1	c #494509",
"2	c #C5C079",
"3	c #494507",
"4	c #292926",
"5	c #C3BA20",
"6	c #181601",
"7	c #D4CA2D",
"8	c #292929",
"9	c #C5C4A6",
"0	c #696306",
"a	c #FDF68A",
"b	c #000000",
"c	c #FCF256",
"d	c #FFFDEA",
"e	c #212121",
"f	c #A29908",
"g	c #9A9326",
"h	c #9A9108",
"i	c #100F04",
"j	c #10100D",
"k	c #100F05",
"l	c #100F01",
"m	c #525252",
"n	c #393939",
"o	c #9C9C9C",
"p	c #A5A5A5",
"q	c #181818",
"r	c #424242",
"s	c #101010",
"t	c #848484",
"                ",
"                ",
"    .+@#$%      ",
"    +&*=-;>     ",
"    ,'))!~{]^   ",
"   /(__)))):<   ",
"   [}__))))|1   ",
"   [2__)))))3   ",
"   /45)))))67   ",
"    89!))))0a   ",
"     b))))6cd   ",
"     ef))fbd    ",
"     [g))hi     ",
"     [jklkj     ",
"     mnopnq     ",
"     r[po[s     ",
"      smtq      ",
"                "};
